<svg xmlns="http://www.w3.org/2000/svg" xmlns:xlink="http://www.w3.org/1999/xlink" width="690.64" height="669.305" viewBox="0 0 690.64 669.305">
  <defs>
    <linearGradient id="linear-gradient" y1="0.5" x2="1" y2="0.5" gradientUnits="objectBoundingBox">
      <stop offset="0" stop-color="#ff9408"/>
      <stop offset="1" stop-color="#eeac57"/>
    </linearGradient>
    <linearGradient id="linear-gradient-2" y1="0.5" x2="1" y2="0.5" gradientUnits="objectBoundingBox">
      <stop offset="0.021" stop-color="#ff9408"/>
      <stop offset="0.256" stop-color="#f99c23"/>
      <stop offset="0.551" stop-color="#f3a43f"/>
      <stop offset="0.809" stop-color="#efaa50"/>
      <stop offset="1" stop-color="#eeac57"/>
    </linearGradient>
  </defs>
  <g id="Groupe_223" data-name="Groupe 223" transform="translate(-1070 -1648)">
    <path id="Tracé_1276" data-name="Tracé 1276" d="M249.883,0,475.471,499.875,0,469.333Z" transform="translate(1522.904 1648) rotate(60)" fill="#134989" opacity="0.077"/>
    <g id="Groupe_193" data-name="Groupe 193" transform="translate(1070 1810.12)">
      <g id="Groupe_177" data-name="Groupe 177" transform="translate(0 54.386)">
        <path id="Tracé_1151" data-name="Tracé 1151" d="M561.847,208.687l-254-146.648a5.148,5.148,0,0,0-7.721,4.458V257.921a11.189,11.189,0,0,0,5.6,9.689l254,146.648a5.147,5.147,0,0,0,7.721-4.456V218.376A11.189,11.189,0,0,0,561.847,208.687Z" transform="translate(-127.145 -61.342)" fill="#134989"/>
        <path id="Tracé_1152" data-name="Tracé 1152" d="M545.211,209.586,306.189,70.794V245.9L545.211,384.692Z" transform="translate(-119.962 -50.149)" fill="#97cbfc"/>
        <path id="Tracé_1153" data-name="Tracé 1153" d="M383.607,156.969l-160.063,91.5a5.194,5.194,0,0,0-.02,9.008L472.736,401.359a20.657,20.657,0,0,0,20.575.044l160.061-91.5a5.2,5.2,0,0,0,.02-9.01L404.179,157.013A20.648,20.648,0,0,0,383.607,156.969Z" transform="translate(-220.927 48.674)" fill="#134989"/>
        <path id="Tracé_1154" data-name="Tracé 1154" d="M312.158,210.126l-42.19,24.118a1.369,1.369,0,0,0,0,2.374l65.687,37.924a5.441,5.441,0,0,0,5.421.011l42.19-24.118a1.369,1.369,0,0,0,.007-2.374l-65.687-37.924A5.445,5.445,0,0,0,312.158,210.126Z" transform="translate(-163.67 113.996)" fill="#e5e9f4"/>
        <path id="Tracé_1155" data-name="Tracé 1155" d="M308.387,162.022l13.791,7.961a.823.823,0,0,1,0,1.426l-6.852,3.938a1.78,1.78,0,0,1-1.774,0l-13.791-7.964a.822.822,0,0,1,0-1.424l6.852-3.938A1.78,1.78,0,0,1,308.387,162.022Z" transform="translate(-128.06 57.6)" fill="#d3daed"/>
        <path id="Tracé_1156" data-name="Tracé 1156" d="M317.64,167.533l13.791,7.961a.824.824,0,0,1,0,1.426l-6.852,3.938a1.769,1.769,0,0,1-1.773,0l-13.791-7.961a.823.823,0,0,1,0-1.426l6.85-3.936A1.778,1.778,0,0,1,317.64,167.533Z" transform="translate(-117.105 64.126)" fill="#d3daed"/>
        <path id="Tracé_1157" data-name="Tracé 1157" d="M326.925,172.751l13.791,7.961a.824.824,0,0,1,0,1.426l-6.85,3.938a1.778,1.778,0,0,1-1.776,0L318.3,178.113a.823.823,0,0,1,0-1.426l6.85-3.936A1.778,1.778,0,0,1,326.925,172.751Z" transform="translate(-106.11 70.305)" fill="#d3daed"/>
        <path id="Tracé_1158" data-name="Tracé 1158" d="M336.491,178.14,350.28,186.1a.824.824,0,0,1,0,1.426l-6.852,3.938a1.779,1.779,0,0,1-1.774,0L327.864,183.5a.823.823,0,0,1,0-1.426l6.85-3.938A1.778,1.778,0,0,1,336.491,178.14Z" transform="translate(-94.782 76.686)" fill="#d3daed"/>
        <path id="Tracé_1159" data-name="Tracé 1159" d="M345.68,183.261l13.791,7.964a.822.822,0,0,1,0,1.424l-6.852,3.938a1.774,1.774,0,0,1-1.774,0l-13.791-7.961a.823.823,0,0,1,0-1.426l6.85-3.938A1.783,1.783,0,0,1,345.68,183.261Z" transform="translate(-83.9 82.751)" fill="#d3daed"/>
        <path id="Tracé_1160" data-name="Tracé 1160" d="M354.614,188.774l13.789,7.961a.821.821,0,0,1,0,1.424l-6.852,3.938a1.774,1.774,0,0,1-1.774,0l-13.791-7.963a.821.821,0,0,1,0-1.424l6.85-3.938A1.773,1.773,0,0,1,354.614,188.774Z" transform="translate(-73.321 89.277)" fill="#d3daed"/>
        <path id="Tracé_1161" data-name="Tracé 1161" d="M363.967,193.928l13.791,7.964a.821.821,0,0,1,0,1.424l-6.85,3.938a1.773,1.773,0,0,1-1.776,0L355.34,199.29a.821.821,0,0,1,0-1.424l6.85-3.938A1.783,1.783,0,0,1,363.967,193.928Z" transform="translate(-62.245 95.384)" fill="#d3daed"/>
        <path id="Tracé_1162" data-name="Tracé 1162" d="M373.181,199.416l13.791,7.964a.821.821,0,0,1,0,1.424l-6.85,3.938a1.778,1.778,0,0,1-1.776,0l-13.791-7.961a.824.824,0,0,1,0-1.426l6.852-3.936A1.774,1.774,0,0,1,373.181,199.416Z" transform="translate(-51.334 101.881)" fill="#d3daed"/>
        <path id="Tracé_1163" data-name="Tracé 1163" d="M382.242,204.763l13.791,7.964a.821.821,0,0,1,0,1.424l-6.85,3.938a1.784,1.784,0,0,1-1.776,0l-13.789-7.961a.823.823,0,0,1,0-1.426l6.852-3.938A1.779,1.779,0,0,1,382.242,204.763Z" transform="translate(-40.604 108.213)" fill="#d3daed"/>
        <path id="Tracé_1164" data-name="Tracé 1164" d="M391.794,210.267l13.791,7.961a.821.821,0,0,1,0,1.424l-6.85,3.938a1.778,1.778,0,0,1-1.776,0l-13.789-7.961a.821.821,0,0,1,0-1.424l6.852-3.938A1.774,1.774,0,0,1,391.794,210.267Z" transform="translate(-29.292 114.73)" fill="#d3daed"/>
        <path id="Tracé_1165" data-name="Tracé 1165" d="M401.071,215.472l13.791,7.961a.823.823,0,0,1,0,1.426l-6.85,3.936a1.778,1.778,0,0,1-1.776,0l-13.789-7.961a.823.823,0,0,1,0-1.426l6.852-3.938A1.779,1.779,0,0,1,401.071,215.472Z" transform="translate(-18.307 120.894)" fill="#d3daed"/>
        <g id="Groupe_173" data-name="Groupe 173" transform="translate(151.316 228.618)">
          <path id="Tracé_1166" data-name="Tracé 1166" d="M291.168,172.019l9.342-5.471a3.912,3.912,0,0,1,3.929-.013l9.126,5.27a1.942,1.942,0,0,1,.046,3.337l-9.075,5.572a3.91,3.91,0,0,1-3.995.057l-9.361-5.393A1.941,1.941,0,0,1,291.168,172.019Z" transform="translate(-290.205 -166.012)" fill="#d3daed"/>
          <path id="Tracé_1167" data-name="Tracé 1167" d="M300.744,177.53l9.344-5.471a3.907,3.907,0,0,1,3.929-.011l9.125,5.268a1.944,1.944,0,0,1,.046,3.34l-9.075,5.572a3.9,3.9,0,0,1-3.995.055l-9.361-5.391A1.944,1.944,0,0,1,300.744,177.53Z" transform="translate(-278.863 -159.486)" fill="#d3daed"/>
          <path id="Tracé_1168" data-name="Tracé 1168" d="M310.043,182.748l9.344-5.471a3.907,3.907,0,0,1,3.929-.011l9.125,5.268a1.943,1.943,0,0,1,.044,3.34l-9.075,5.57a3.9,3.9,0,0,1-3.995.057l-9.359-5.391A1.944,1.944,0,0,1,310.043,182.748Z" transform="translate(-267.852 -153.307)" fill="#d3daed"/>
          <path id="Tracé_1169" data-name="Tracé 1169" d="M319.935,188.137l9.344-5.471a3.912,3.912,0,0,1,3.929-.013l9.126,5.268a1.944,1.944,0,0,1,.046,3.34l-9.075,5.572a3.91,3.91,0,0,1-3.995.057l-9.361-5.391A1.944,1.944,0,0,1,319.935,188.137Z" transform="translate(-256.138 -146.925)" fill="#d3daed"/>
          <path id="Tracé_1170" data-name="Tracé 1170" d="M328.651,193.258l9.342-5.471a3.907,3.907,0,0,1,3.929-.011l9.126,5.268a1.943,1.943,0,0,1,.046,3.34l-9.075,5.57a3.9,3.9,0,0,1-3.995.057l-9.361-5.391A1.944,1.944,0,0,1,328.651,193.258Z" transform="translate(-245.817 -140.861)" fill="#d3daed"/>
          <path id="Tracé_1171" data-name="Tracé 1171" d="M337.506,198.741l9.344-5.471a3.908,3.908,0,0,1,3.927-.013l9.126,5.27a1.941,1.941,0,0,1,.046,3.337l-9.075,5.572a3.91,3.91,0,0,1-3.995.057l-9.361-5.393A1.942,1.942,0,0,1,337.506,198.741Z" transform="translate(-235.331 -134.368)" fill="#d3daed"/>
          <path id="Tracé_1172" data-name="Tracé 1172" d="M346.968,203.925l9.344-5.469a3.912,3.912,0,0,1,3.929-.013l9.126,5.268a1.943,1.943,0,0,1,.044,3.34l-9.073,5.572a3.909,3.909,0,0,1-4,.055l-9.359-5.391A1.944,1.944,0,0,1,346.968,203.925Z" transform="translate(-224.126 -128.227)" fill="#d3daed"/>
          <path id="Tracé_1173" data-name="Tracé 1173" d="M356.228,209.175l9.344-5.469a3.907,3.907,0,0,1,3.929-.013l9.125,5.268a1.943,1.943,0,0,1,.044,3.34l-9.073,5.572a3.909,3.909,0,0,1-4,.055l-9.359-5.391A1.944,1.944,0,0,1,356.228,209.175Z" transform="translate(-213.16 -122.01)" fill="#d3daed"/>
          <path id="Tracé_1174" data-name="Tracé 1174" d="M365.333,214.76l9.344-5.471a3.907,3.907,0,0,1,3.929-.011l9.125,5.268a1.944,1.944,0,0,1,.046,3.34l-9.075,5.57a3.91,3.91,0,0,1-3.995.057l-9.361-5.391A1.944,1.944,0,0,1,365.333,214.76Z" transform="translate(-202.378 -115.399)" fill="#d3daed"/>
          <path id="Tracé_1175" data-name="Tracé 1175" d="M375.253,220.6l9.342-5.469a3.9,3.9,0,0,1,3.929-.013l9.125,5.268a1.943,1.943,0,0,1,.046,3.34l-9.075,5.572a3.9,3.9,0,0,1-3.995.055l-9.361-5.391A1.944,1.944,0,0,1,375.253,220.6Z" transform="translate(-190.632 -108.48)" fill="#d3daed"/>
          <path id="Tracé_1176" data-name="Tracé 1176" d="M384.224,225.469,393.566,220a3.912,3.912,0,0,1,3.929-.013l9.125,5.268a1.943,1.943,0,0,1,.046,3.34l-9.075,5.572a3.91,3.91,0,0,1-3.995.057l-9.361-5.391A1.943,1.943,0,0,1,384.224,225.469Z" transform="translate(-180.01 -102.717)" fill="#d3daed"/>
        </g>
        <g id="Groupe_174" data-name="Groupe 174" transform="translate(130.498 239.938)">
          <path id="Tracé_1177" data-name="Tracé 1177" d="M281.637,177.2l9.342-5.469a3.907,3.907,0,0,1,3.929-.013l9.125,5.268a1.943,1.943,0,0,1,.046,3.34L295,185.9a3.9,3.9,0,0,1-3.995.055l-9.361-5.388A1.945,1.945,0,0,1,281.637,177.2Z" transform="translate(-280.674 -171.194)" fill="#d3daed"/>
          <path id="Tracé_1178" data-name="Tracé 1178" d="M291.213,182.713l9.344-5.471a3.912,3.912,0,0,1,3.929-.013l9.125,5.27a1.943,1.943,0,0,1,.046,3.34l-9.075,5.57a3.91,3.91,0,0,1-3.995.057l-9.361-5.391A1.944,1.944,0,0,1,291.213,182.713Z" transform="translate(-269.332 -164.668)" fill="#d3daed"/>
          <path id="Tracé_1179" data-name="Tracé 1179" d="M300.512,187.931l9.344-5.471a3.907,3.907,0,0,1,3.929-.011l9.126,5.268a1.944,1.944,0,0,1,.046,3.34l-9.075,5.57a3.91,3.91,0,0,1-3.995.057l-9.361-5.391A1.944,1.944,0,0,1,300.512,187.931Z" transform="translate(-258.321 -158.489)" fill="#d3daed"/>
          <path id="Tracé_1180" data-name="Tracé 1180" d="M310.4,193.318l9.344-5.469a3.912,3.912,0,0,1,3.929-.013L332.8,193.1a1.944,1.944,0,0,1,.046,3.34l-9.075,5.572a3.9,3.9,0,0,1-3.995.055l-9.361-5.391A1.944,1.944,0,0,1,310.4,193.318Z" transform="translate(-246.607 -152.107)" fill="#d3daed"/>
          <path id="Tracé_1181" data-name="Tracé 1181" d="M319.12,198.441l9.344-5.471a3.9,3.9,0,0,1,3.927-.011l9.125,5.268a1.943,1.943,0,0,1,.046,3.34l-9.075,5.57a3.91,3.91,0,0,1-3.995.057l-9.359-5.391A1.944,1.944,0,0,1,319.12,198.441Z" transform="translate(-236.285 -146.043)" fill="#d3daed"/>
          <path id="Tracé_1182" data-name="Tracé 1182" d="M327.975,203.923l9.344-5.471a3.907,3.907,0,0,1,3.929-.011l9.125,5.268a1.944,1.944,0,0,1,.044,3.34l-9.075,5.572a3.91,3.91,0,0,1-3.995.057l-9.359-5.393A1.944,1.944,0,0,1,327.975,203.923Z" transform="translate(-225.799 -139.551)" fill="#d3daed"/>
          <path id="Tracé_1183" data-name="Tracé 1183" d="M337.437,209.109l9.344-5.471a3.907,3.907,0,0,1,3.929-.011l9.125,5.268a1.944,1.944,0,0,1,.046,3.34l-9.075,5.572a3.9,3.9,0,0,1-3.995.055l-9.361-5.391A1.944,1.944,0,0,1,337.437,209.109Z" transform="translate(-214.595 -133.41)" fill="#d3daed"/>
          <path id="Tracé_1184" data-name="Tracé 1184" d="M346.7,214.359l9.342-5.471a3.907,3.907,0,0,1,3.929-.011l9.126,5.268a1.944,1.944,0,0,1,.046,3.34l-9.075,5.57a3.9,3.9,0,0,1-3.995.057l-9.361-5.391A1.943,1.943,0,0,1,346.7,214.359Z" transform="translate(-203.629 -127.193)" fill="#d3daed"/>
          <path id="Tracé_1185" data-name="Tracé 1185" d="M355.8,219.943l9.344-5.471a3.912,3.912,0,0,1,3.929-.013l9.126,5.27a1.944,1.944,0,0,1,.046,3.34l-9.075,5.57a3.91,3.91,0,0,1-3.995.057l-9.361-5.391A1.944,1.944,0,0,1,355.8,219.943Z" transform="translate(-192.847 -120.581)" fill="#d3daed"/>
          <path id="Tracé_1186" data-name="Tracé 1186" d="M365.722,225.785l9.344-5.471A3.912,3.912,0,0,1,379,220.3l9.125,5.27a1.943,1.943,0,0,1,.044,3.34l-9.075,5.57a3.9,3.9,0,0,1-3.995.057l-9.359-5.391A1.944,1.944,0,0,1,365.722,225.785Z" transform="translate(-181.1 -113.663)" fill="#d3daed"/>
          <path id="Tracé_1187" data-name="Tracé 1187" d="M374.692,230.65l9.344-5.469a3.908,3.908,0,0,1,3.927-.013l9.125,5.268a1.943,1.943,0,0,1,.046,3.34l-9.075,5.572a3.9,3.9,0,0,1-3.995.055l-9.361-5.391A1.945,1.945,0,0,1,374.692,230.65Z" transform="translate(-170.478 -107.899)" fill="#d3daed"/>
        </g>
        <g id="Groupe_175" data-name="Groupe 175" transform="translate(109.683 251.258)">
          <path id="Tracé_1188" data-name="Tracé 1188" d="M272.1,182.383l9.344-5.471a3.908,3.908,0,0,1,3.927-.011l9.128,5.268a1.943,1.943,0,0,1,.044,3.34l-9.075,5.572a3.9,3.9,0,0,1-3.995.055l-9.359-5.391A1.944,1.944,0,0,1,272.1,182.383Z" transform="translate(-271.144 -176.377)" fill="#d3daed"/>
          <path id="Tracé_1189" data-name="Tracé 1189" d="M281.683,187.9l9.344-5.471a3.908,3.908,0,0,1,3.927-.013l9.125,5.27a1.941,1.941,0,0,1,.046,3.337l-9.075,5.572a3.91,3.91,0,0,1-3.995.057l-9.361-5.391A1.944,1.944,0,0,1,281.683,187.9Z" transform="translate(-259.803 -169.851)" fill="#d3daed"/>
          <path id="Tracé_1190" data-name="Tracé 1190" d="M290.983,193.112l9.342-5.469a3.912,3.912,0,0,1,3.929-.013l9.125,5.268a1.946,1.946,0,0,1,.046,3.342l-9.075,5.57a3.9,3.9,0,0,1-3.995.055l-9.361-5.388A1.945,1.945,0,0,1,290.983,193.112Z" transform="translate(-248.791 -163.672)" fill="#d3daed"/>
          <path id="Tracé_1191" data-name="Tracé 1191" d="M300.875,198.5l9.342-5.471a3.907,3.907,0,0,1,3.929-.011l9.126,5.268a1.943,1.943,0,0,1,.046,3.34l-9.075,5.572a3.9,3.9,0,0,1-3.995.055l-9.361-5.391A1.944,1.944,0,0,1,300.875,198.5Z" transform="translate(-237.077 -157.291)" fill="#d3daed"/>
          <path id="Tracé_1192" data-name="Tracé 1192" d="M309.589,203.624l9.344-5.471a3.912,3.912,0,0,1,3.929-.013l9.126,5.27a1.941,1.941,0,0,1,.044,3.337l-9.075,5.572a3.91,3.91,0,0,1-3.995.057l-9.359-5.393A1.942,1.942,0,0,1,309.589,203.624Z" transform="translate(-226.756 -151.226)" fill="#d3daed"/>
          <path id="Tracé_1193" data-name="Tracé 1193" d="M318.444,209.106l9.344-5.471a3.907,3.907,0,0,1,3.929-.011l9.126,5.268a1.943,1.943,0,0,1,.044,3.34l-9.075,5.57a3.9,3.9,0,0,1-3.995.057l-9.359-5.391A1.944,1.944,0,0,1,318.444,209.106Z" transform="translate(-216.27 -144.734)" fill="#d3daed"/>
          <path id="Tracé_1194" data-name="Tracé 1194" d="M327.908,214.292l9.342-5.471a3.912,3.912,0,0,1,3.929-.013l9.126,5.27a1.944,1.944,0,0,1,.046,3.34l-9.075,5.57a3.9,3.9,0,0,1-3.995.057l-9.361-5.391A1.943,1.943,0,0,1,327.908,214.292Z" transform="translate(-205.065 -138.593)" fill="#d3daed"/>
          <path id="Tracé_1195" data-name="Tracé 1195" d="M337.167,219.542l9.342-5.471a3.912,3.912,0,0,1,3.929-.013l9.125,5.27a1.943,1.943,0,0,1,.046,3.34l-9.075,5.57a3.91,3.91,0,0,1-3.995.057l-9.361-5.391A1.944,1.944,0,0,1,337.167,219.542Z" transform="translate(-194.099 -132.376)" fill="#d3daed"/>
          <path id="Tracé_1196" data-name="Tracé 1196" d="M346.273,225.124l9.342-5.469a3.912,3.912,0,0,1,3.929-.013l9.126,5.268a1.943,1.943,0,0,1,.046,3.34l-9.075,5.572a3.905,3.905,0,0,1-3.995.055l-9.361-5.391A1.943,1.943,0,0,1,346.273,225.124Z" transform="translate(-183.318 -125.764)" fill="#d3daed"/>
          <path id="Tracé_1197" data-name="Tracé 1197" d="M356.191,230.968l9.344-5.471a3.912,3.912,0,0,1,3.929-.013l9.125,5.27a1.942,1.942,0,0,1,.046,3.337l-9.075,5.572a3.91,3.91,0,0,1-3.995.057l-9.361-5.393A1.942,1.942,0,0,1,356.191,230.968Z" transform="translate(-171.571 -118.846)" fill="#d3daed"/>
          <path id="Tracé_1198" data-name="Tracé 1198" d="M365.161,235.833l9.344-5.469a3.9,3.9,0,0,1,3.929-.013l9.125,5.268a1.943,1.943,0,0,1,.044,3.34l-9.073,5.57a3.9,3.9,0,0,1-4,.057l-9.359-5.391A1.944,1.944,0,0,1,365.161,235.833Z" transform="translate(-160.949 -113.083)" fill="#d3daed"/>
        </g>
        <g id="Groupe_176" data-name="Groupe 176" transform="translate(88.865 262.578)">
          <path id="Tracé_1199" data-name="Tracé 1199" d="M262.574,187.567l9.344-5.471a3.907,3.907,0,0,1,3.929-.011l9.125,5.268a1.943,1.943,0,0,1,.044,3.34l-9.075,5.57a3.91,3.91,0,0,1-3.995.057l-9.359-5.391A1.944,1.944,0,0,1,262.574,187.567Z" transform="translate(-261.613 -181.56)" fill="#d3daed"/>
          <path id="Tracé_1200" data-name="Tracé 1200" d="M272.152,193.079l9.344-5.471a3.907,3.907,0,0,1,3.929-.013l9.125,5.268a1.943,1.943,0,0,1,.044,3.34l-9.075,5.572a3.9,3.9,0,0,1-3.995.055l-9.359-5.388A1.944,1.944,0,0,1,272.152,193.079Z" transform="translate(-250.271 -175.033)" fill="#d3daed"/>
          <path id="Tracé_1201" data-name="Tracé 1201" d="M281.452,198.3l9.344-5.469a3.9,3.9,0,0,1,3.927-.013l9.125,5.268a1.943,1.943,0,0,1,.046,3.34l-9.075,5.572a3.91,3.91,0,0,1-3.995.055l-9.361-5.391A1.943,1.943,0,0,1,281.452,198.3Z" transform="translate(-239.26 -168.855)" fill="#d3daed"/>
          <path id="Tracé_1202" data-name="Tracé 1202" d="M291.343,203.685l9.344-5.471a3.907,3.907,0,0,1,3.929-.011l9.126,5.268a1.943,1.943,0,0,1,.044,3.34l-9.075,5.57a3.91,3.91,0,0,1-3.995.057l-9.361-5.391A1.945,1.945,0,0,1,291.343,203.685Z" transform="translate(-227.546 -162.473)" fill="#d3daed"/>
          <path id="Tracé_1203" data-name="Tracé 1203" d="M300.875,209.374l9.342-5.471a3.912,3.912,0,0,1,3.929-.013l47.5,27.438a1.943,1.943,0,0,1,.044,3.34l-9.075,5.572a3.91,3.91,0,0,1-3.995.055l-47.737-27.558A1.944,1.944,0,0,1,300.875,209.374Z" transform="translate(-216.26 -155.737)" fill="#d3daed"/>
          <path id="Tracé_1204" data-name="Tracé 1204" d="M327.636,224.725l9.344-5.471a3.908,3.908,0,0,1,3.927-.013l9.128,5.27a1.941,1.941,0,0,1,.044,3.337L341,233.42a3.91,3.91,0,0,1-3.995.057l-9.361-5.393A1.943,1.943,0,0,1,327.636,224.725Z" transform="translate(-184.568 -137.558)" fill="#d3daed"/>
          <path id="Tracé_1205" data-name="Tracé 1205" d="M336.741,230.308l9.342-5.471a3.907,3.907,0,0,1,3.929-.011l9.128,5.268a1.944,1.944,0,0,1,.044,3.34l-9.075,5.572a3.9,3.9,0,0,1-3.995.055l-9.361-5.391A1.945,1.945,0,0,1,336.741,230.308Z" transform="translate(-173.786 -130.947)" fill="#d3daed"/>
          <path id="Tracé_1206" data-name="Tracé 1206" d="M346.66,236.151,356,230.679a3.912,3.912,0,0,1,3.929-.013l9.126,5.268a1.944,1.944,0,0,1,.046,3.34l-9.075,5.572a3.9,3.9,0,0,1-3.995.055l-9.361-5.388A1.944,1.944,0,0,1,346.66,236.151Z" transform="translate(-162.04 -124.028)" fill="#d3daed"/>
          <path id="Tracé_1207" data-name="Tracé 1207" d="M355.63,241.017l9.344-5.471a3.912,3.912,0,0,1,3.929-.013l9.126,5.27a1.944,1.944,0,0,1,.046,3.34L369,249.712a3.909,3.909,0,0,1-4,.057l-9.359-5.391A1.944,1.944,0,0,1,355.63,241.017Z" transform="translate(-151.418 -118.266)" fill="#d3daed"/>
        </g>
      </g>
      <g id="Groupe_180" data-name="Groupe 180" transform="translate(205.928 0)">
        <path id="Tracé_1208" data-name="Tracé 1208" d="M512.567,154.388a10.468,10.468,0,0,0-4.7-8.16L319.907,37.085c-2.584-1.5-4.7-.284-4.7,2.706V298.363l197.358,114.6Z" transform="translate(-315.209 -36.442)" fill="#f9f7f9"/>
        <path id="Tracé_1209" data-name="Tracé 1209" d="M507.867,146.228,319.907,37.085c-2.584-1.5-4.7-.284-4.7,2.706V52.057l197.358,114.6V154.388A10.468,10.468,0,0,0,507.867,146.228Z" transform="translate(-315.209 -36.442)" fill="#134989"/>
        <path id="Tracé_1210" data-name="Tracé 1210" d="M320.815,41.567c-.841-.485-1.529-.085-1.529.887a3.4,3.4,0,0,0,1.533,2.656c.843.487,1.531.087,1.527-.887A3.405,3.405,0,0,0,320.815,41.567Z" transform="translate(-310.381 -30.617)" fill="#fff"/>
        <path id="Tracé_1211" data-name="Tracé 1211" d="M323.872,43.379c-.841-.485-1.529-.087-1.529.887a3.4,3.4,0,0,0,1.533,2.656c.843.487,1.531.087,1.527-.887A3.4,3.4,0,0,0,323.872,43.379Z" transform="translate(-306.761 -28.471)" fill="#fff"/>
        <path id="Tracé_1212" data-name="Tracé 1212" d="M326.928,45.192c-.839-.487-1.529-.087-1.529.887a3.4,3.4,0,0,0,1.536,2.656c.843.487,1.531.087,1.527-.887A3.407,3.407,0,0,0,326.928,45.192Z" transform="translate(-303.142 -26.326)" fill="#fff"/>
        <path id="Tracé_1213" data-name="Tracé 1213" d="M322.312,57.229v74.692l164.764,94.815V152.526Z" transform="translate(-306.798 -11.826)" fill="#e5e9f4"/>
        <path id="Tracé_1214" data-name="Tracé 1214" d="M348.242,77.02v5.727l100.691,58.362v-5.69Z" transform="translate(-276.092 11.61)" fill="#fff"/>
        <g id="Groupe_178" data-name="Groupe 178" transform="translate(15.277 215.032)">
          <path id="Tracé_1215" data-name="Tracé 1215" d="M322.2,134.891v5.726l165,95.862v-5.69Z" transform="translate(-322.203 -134.891)" fill="#edf0f8"/>
          <path id="Tracé_1216" data-name="Tracé 1216" d="M322.2,142v5.726l165,95.862v-5.69Z" transform="translate(-322.203 -126.479)" fill="#edf0f8"/>
          <path id="Tracé_1217" data-name="Tracé 1217" d="M322.2,149.455v5.726l165,95.862v-5.69Z" transform="translate(-322.203 -117.645)" fill="#edf0f8"/>
        </g>
        <path id="Tracé_1218" data-name="Tracé 1218" d="M348.242,84.124V89.85l100.691,58.362v-5.69Z" transform="translate(-276.092 20.023)" fill="#fff"/>
        <path id="Tracé_1219" data-name="Tracé 1219" d="M348.242,91.228v5.727l100.691,58.362v-5.69Z" transform="translate(-276.092 28.436)" fill="#fff"/>
        <path id="Tracé_1220" data-name="Tracé 1220" d="M348.242,98.333v5.727L395.4,131.387V125.7Z" transform="translate(-276.092 36.848)" fill="#fff"/>
        <path id="Tracé_1221" data-name="Tracé 1221" d="M322.312,96.032V155.6l47.365,27.914v-59.18Z" transform="translate(-306.798 34.124)" fill="#edf0f8"/>
        <path id="Tracé_1222" data-name="Tracé 1222" d="M376.061,127.646v59.565l47.365,27.914v-59.18Z" transform="translate(-243.149 71.561)" fill="#edf0f8"/>
        <path id="Tracé_1223" data-name="Tracé 1223" d="M345.995,71.018c-12-6.928-21.818-1.228-21.818,12.668s9.846,30.952,21.881,37.9,21.853,1.247,21.82-12.668S358,77.946,345.995,71.018Z" transform="translate(-304.589 1.01)" fill="#fff"/>
        <path id="Tracé_1224" data-name="Tracé 1224" d="M347,140l22.681-14.78v-.889l-.771-.461-22.651,14.76L323.634,96.822l-1.322-.79V97.64l22.638,41.84-22.638,14.752V155.6l.393.232,22.986-14.978,22.658,41.878,1.328.782v-1.59Z" transform="translate(-306.798 34.124)" fill="#fff"/>
        <path id="Tracé_1225" data-name="Tracé 1225" d="M423.426,155.945l-.192-.115L400.17,170.859l-23.033-42.57-1.076-.643v1.913l22.805,42.149-22.805,14.861v.642l.976.575,22.57-14.708,22.248,41.12,1.57.926v-1.281l-22.515-41.614,22.515-14.672Z" transform="translate(-243.149 71.561)" fill="#fff"/>
        <path id="Tracé_1226" data-name="Tracé 1226" d="M350.252,113.171v59.565l47.365,27.914V141.47Z" transform="translate(-273.712 54.42)" fill="#bcbec0" opacity="0.15"/>
        <path id="Tracé_1227" data-name="Tracé 1227" d="M344.725,114.947v59.565l47.365,27.914v-59.18Z" transform="translate(-280.257 56.523)" fill="#808285" opacity="0.15"/>
        <g id="Groupe_179" data-name="Groupe 179" transform="translate(47.633 183.108)">
          <path id="Tracé_1228" data-name="Tracé 1228" d="M340.121,120.275l-3.1.776,3.1,58.789,44.262,28.69,3.1-.776v-59.18Z" transform="translate(-337.017 -120.275)" fill="#d3daed"/>
          <path id="Tracé_1229" data-name="Tracé 1229" d="M337.017,120.63V180.2l47.365,27.914v-59.18Z" transform="translate(-337.017 -119.855)" fill="#e5e9f4"/>
        </g>
        <path id="Tracé_1230" data-name="Tracé 1230" d="M342.536,88.217a4.186,4.186,0,0,0,1.321-3.42,12.516,12.516,0,0,0-5.626-9.746c-3.086-1.78-5.611-.315-5.611,3.259a12.38,12.38,0,0,0,2.9,7.352,9,9,0,0,0-5.177,8.145v2.239l16.751,9.8V101.3A21.053,21.053,0,0,0,342.536,88.217Z" transform="translate(-297.284 8.381)" fill="#c2d9e6"/>
      </g>
      <g id="Groupe_186" data-name="Groupe 186" transform="translate(114.859 89.919)">
        <path id="Tracé_1231" data-name="Tracé 1231" d="M273.514,79.143c0-1.365.968-1.924,2.149-1.243l76.569,44.208a4.77,4.77,0,0,1,2.149,3.724v7.144l4.091,9.04a1.76,1.76,0,0,1-1.6,2.486l-2.49,0v13.374c0,1.365-.968,1.924-2.149,1.241l-76.569-44.206a4.774,4.774,0,0,1-2.149-3.724Z" transform="translate(-273.514 -77.61)" fill="#f9f7f9"/>
        <g id="Groupe_181" data-name="Groupe 181" transform="translate(31.614 35.167)">
          <path id="Tracé_1232" data-name="Tracé 1232" d="M332.285,122.071,287.993,96.58l0-2.869,44.3,25.444Z" transform="translate(-287.988 -93.711)" fill="#adcdde"/>
        </g>
        <g id="Groupe_182" data-name="Groupe 182" transform="translate(31.614 40.924)">
          <path id="Tracé_1233" data-name="Tracé 1233" d="M332.285,124.625l-44.3-25.412V96.346l44.3,25.444Z" transform="translate(-287.988 -96.346)" fill="#adcdde"/>
        </g>
        <g id="Groupe_183" data-name="Groupe 183" transform="translate(31.614 46.633)">
          <path id="Tracé_1234" data-name="Tracé 1234" d="M312.628,115.922l-24.64-14.1V98.96l24.64,14.128Z" transform="translate(-287.988 -98.96)" fill="#adcdde"/>
        </g>
        <g id="Groupe_184" data-name="Groupe 184" transform="translate(31.614 21.928)">
          <path id="Tracé_1235" data-name="Tracé 1235" d="M310.541,108.623,287.988,95.281V87.65L310.541,101.1Z" transform="translate(-287.988 -87.65)" fill="#adcdde"/>
        </g>
        <path id="Tracé_1236" data-name="Tracé 1236" d="M302.2,93.223,275.663,77.9c-1.182-.681-2.149-.122-2.149,1.243v32.048a4.774,4.774,0,0,0,2.149,3.724l26.538,15.32Z" transform="translate(-273.514 -77.61)" fill="#134989"/>
        <g id="Groupe_185" data-name="Groupe 185" transform="translate(4.954 14.344)">
          <path id="Tracé_1237" data-name="Tracé 1237" d="M290.9,103.736q.639.364,1.123-.533a5.788,5.788,0,0,0,.485-2.673,15.777,15.777,0,0,0-1.915-7.472,13.15,13.15,0,0,0-5.124-5.45q-3.214-1.831-5.41-.437t-2.2,5.1a14.712,14.712,0,0,0,2.066,7.339,13.855,13.855,0,0,0,5.115,5.375,4.156,4.156,0,0,0,4.2.378l.97,2.492a4.226,4.226,0,0,1-2.411.168,8.358,8.358,0,0,1-2.763-.987,19.717,19.717,0,0,1-9.259-15.949q0-4.577,2.8-6.216t6.745.609a17.881,17.881,0,0,1,6.592,6.874,18.522,18.522,0,0,1,2.645,9.267q0,3-1.075,4.209t-2.824.205a5.2,5.2,0,0,1-1.643-1.566,6.512,6.512,0,0,1-1.027-2.169q-1.3,1.2-3.294.059a9.611,9.611,0,0,1-3.475-3.731,10.556,10.556,0,0,1-1.477-5.279q0-2.693,1.335-3.774t3.508.157a5.575,5.575,0,0,1,1.394,1.164,7.476,7.476,0,0,1,.946,1.262l.308.533V91.57l2.953,1.684v8.713C290.191,102.878,290.425,103.468,290.9,103.736Zm-3.637-6.2a5.833,5.833,0,0,0-.627-2.625,4.171,4.171,0,0,0-1.643-1.837q-1.016-.58-1.618-.022a2.486,2.486,0,0,0-.6,1.883,6.4,6.4,0,0,0,.6,2.652,4.039,4.039,0,0,0,1.643,1.92c.695.4,1.241.4,1.64-.007A2.688,2.688,0,0,0,287.262,97.538Z" transform="translate(-275.782 -84.177)" fill="#fff"/>
        </g>
      </g>
      <g id="Groupe_187" data-name="Groupe 187" transform="translate(79.084 8.767)">
        <path id="Tracé_1238" data-name="Tracé 1238" d="M257.135,41.47c0-.9.642-1.273,1.424-.821l81.188,46.873a3.156,3.156,0,0,1,1.424,2.466v38.8c0,.9-.64,1.273-1.424.823L258.561,82.838a3.158,3.158,0,0,1-1.426-2.466Z" transform="translate(-257.135 -40.456)" fill="#f9f7f9"/>
        <path id="Tracé_1239" data-name="Tracé 1239" d="M261.261,50.684c0-.135.094-.19.212-.122l66.8,38.527a.471.471,0,0,1,.212.367v5.786c0,.135-.1.19-.212.122l-66.8-38.511a.465.465,0,0,1-.212-.367Z" transform="translate(-252.249 -28.522)" fill="#dad9db"/>
        <path id="Tracé_1240" data-name="Tracé 1240" d="M261.261,50.684c0-.135.094-.19.212-.122l44.647,25.73a.471.471,0,0,1,.212.367v5.786c0,.135-.1.19-.212.122L261.473,56.852a.465.465,0,0,1-.212-.367Z" transform="translate(-252.249 -28.522)" fill="#eeac57"/>
      </g>
      <g id="Groupe_190" data-name="Groupe 190" transform="translate(444.155 105.601)">
        <path id="Tracé_1241" data-name="Tracé 1241" d="M424.278,86.489c0-1.514,1.075-2.134,2.385-1.376l68.706,39.667a5.29,5.29,0,0,1,2.385,4.13v51.053c0,1.516-1.072,2.136-2.385,1.378l-68.706-39.667a5.3,5.3,0,0,1-2.385-4.132Z" transform="translate(-424.278 -84.79)" fill="#f9f7f9"/>
        <path id="Tracé_1242" data-name="Tracé 1242" d="M426.663,118.368l68.706,39.667c1.313.758,2.385.138,2.385-1.378v-9.7l-.164-.1-73.312-42.384v9.763A5.3,5.3,0,0,0,426.663,118.368Z" transform="translate(-424.278 -61.483)" fill="#134989"/>
        <path id="Tracé_1243" data-name="Tracé 1243" d="M454.252,117.888l-12.843,1.321c-1.483.153-3.337-1.8-3.337-3.51V100.871c0-1.712,1.854-1.9,3.337-.343l12.843,13.509c1.483,1.559,1.483,3.7,0,3.851l-12.843,1.321c-1.483.153-3.337-1.8-3.337-3.51V100.871c0-1.712,1.854-1.9,3.337-.343l12.843,13.509C455.735,115.6,455.735,117.737,454.252,117.888Z" transform="translate(-407.944 -67.414)" fill="#134989"/>
        <g id="Groupe_188" data-name="Groupe 188" transform="translate(7.147 53.081)">
          <path id="Tracé_1244" data-name="Tracé 1244" d="M485.118,143.779a1.008,1.008,0,0,1-.509-.138l-56.551-32.649a1.018,1.018,0,0,1,1.018-1.763l56.551,32.649a1.018,1.018,0,0,1-.509,1.9Z" transform="translate(-427.55 -109.092)" fill="#fff"/>
        </g>
        <g id="Groupe_189" data-name="Groupe 189" transform="translate(7.147 53.081)">
          <path id="Tracé_1245" data-name="Tracé 1245" d="M454.468,126.083a1.014,1.014,0,0,1-.507-.135l-25.9-14.955a1.018,1.018,0,0,1,1.018-1.763l25.9,14.955a1.018,1.018,0,0,1-.511,1.9Z" transform="translate(-427.55 -109.092)" fill="url(#linear-gradient)"/>
        </g>
        <path id="Tracé_1246" data-name="Tracé 1246" d="M441.924,119.587a1.1,1.1,0,0,1-2.082,0,4,4,0,0,1,0-3.6,1.1,1.1,0,0,1,2.082,0A4,4,0,0,1,441.924,119.587Z" transform="translate(-406.355 -48.732)" fill="#eeac57"/>
      </g>
      <g id="Groupe_191" data-name="Groupe 191" transform="translate(163.721 168.329)">
        <path id="Tracé_1247" data-name="Tracé 1247" d="M376.261,213.189l-.1-52.254-80.274-47.426v52.215Z" transform="translate(-295.885 -113.509)" fill="#eeac57"/>
        <path id="Tracé_1248" data-name="Tracé 1248" d="M308.667,123.971c-3.7-2.136-6.727-.378-6.727,3.907a14.966,14.966,0,0,0,6.747,11.685c3.709,2.143,6.736.384,6.727-3.908A15.012,15.012,0,0,0,308.667,123.971Z" transform="translate(-288.714 -102.197)" fill="#db881b"/>
        <path id="Tracé_1249" data-name="Tracé 1249" d="M295.885,143.356l32.9-10.958,12.291,20.94,23.217-6.373,12.093,18.892-.122,24.964Z" transform="translate(-295.885 -91.141)" fill="#db881b"/>
        <path id="Tracé_1250" data-name="Tracé 1250" d="M326,132.4l-27.771,9.251Z" transform="translate(-293.105 -91.141)" fill="#231f20" opacity="0.17"/>
      </g>
      <g id="Groupe_192" data-name="Groupe 192" transform="translate(261.474 131.453)">
        <path id="Tracé_1252" data-name="Tracé 1252" d="M340.64,101.657c0-4.482,3.176-6.317,7.057-4.073l130.837,75.538a15.66,15.66,0,0,1,7.057,12.225V323.8L340.64,240.116Z" transform="translate(-340.64 -96.626)" fill="#134989"/>
        <path id="Tracé_1253" data-name="Tracé 1253" d="M478.534,173.121,347.7,97.583c-3.881-2.243-7.057-.408-7.057,4.073V121.4l144.951,83.687V185.346A15.66,15.66,0,0,0,478.534,173.121Z" transform="translate(-340.64 -96.626)" fill="#fff"/>
        <path id="Tracé_1254" data-name="Tracé 1254" d="M348.391,104.712c-1.461-.843-2.656-.153-2.656,1.535a5.891,5.891,0,0,0,2.656,4.6c1.461.845,2.658.155,2.658-1.533A5.894,5.894,0,0,0,348.391,104.712Z" transform="translate(-334.607 -87.476)" fill="#134989"/>
        <path id="Tracé_1255" data-name="Tracé 1255" d="M354.357,108.215c-1.461-.843-2.656-.153-2.656,1.535a5.9,5.9,0,0,0,2.656,4.6c1.461.843,2.658.153,2.658-1.535A5.9,5.9,0,0,0,354.357,108.215Z" transform="translate(-327.542 -83.328)" fill="#134989"/>
        <path id="Tracé_1256" data-name="Tracé 1256" d="M360.322,111.718c-1.461-.843-2.656-.153-2.656,1.535a5.9,5.9,0,0,0,2.656,4.6c1.463.843,2.658.153,2.658-1.535A5.9,5.9,0,0,0,360.322,111.718Z" transform="translate(-320.478 -79.179)" fill="#134989"/>
        <path id="Tracé_1257" data-name="Tracé 1257" d="M355.964,122.005l66.353,38.308v4.347l-66.353-38.308Z" transform="translate(-322.494 -66.571)" fill="#fff"/>
        <path id="Tracé_1258" data-name="Tracé 1258" d="M343.7,114.952l22.781,13.232v4.347L343.7,119.3Z" transform="translate(-337.013 -74.924)" fill="#fff"/>
        <path id="Tracé_1259" data-name="Tracé 1259" d="M348.918,123.665l18.94,10.957v4.346l-18.94-10.957Z" transform="translate(-330.837 -64.605)" fill="url(#linear-gradient-2)"/>
        <path id="Tracé_1260" data-name="Tracé 1260" d="M359.076,129.472l25.77,15v4.347l-25.77-15Z" transform="translate(-318.808 -57.73)" fill="#fff"/>
        <path id="Tracé_1261" data-name="Tracé 1261" d="M378.121,146.285l56.4,32.564V183.2l-56.4-32.564Z" transform="translate(-296.256 -37.82)" fill="#fff"/>
        <path id="Tracé_1262" data-name="Tracé 1262" d="M368.506,140.752l14.962,8.624v4.347L368.506,145.1Z" transform="translate(-307.642 -44.372)" fill="url(#linear-gradient-2)"/>
        <path id="Tracé_1263" data-name="Tracé 1263" d="M343.7,126.472l47.376,27.351v4.347L343.7,130.818Z" transform="translate(-337.013 -61.282)" fill="#fff"/>
        <path id="Tracé_1264" data-name="Tracé 1264" d="M359.68,141.535l46.163,26.659v4.347L359.68,145.881Z" transform="translate(-318.093 -43.445)" fill="#fff"/>
        <path id="Tracé_1265" data-name="Tracé 1265" d="M353.642,137.992l10.348,6.029v4.347l-10.348-6.028Z" transform="translate(-325.244 -47.641)" fill="url(#linear-gradient-2)"/>
        <path id="Tracé_1266" data-name="Tracé 1266" d="M362.212,148.631l81.115,46.709v4.347l-81.115-46.709Z" transform="translate(-315.095 -35.042)" fill="#fff"/>
        <path id="Tracé_1267" data-name="Tracé 1267" d="M346.674,139.757l29.98,17.209v4.347L346.674,144.1Z" transform="translate(-333.495 -45.55)" fill="#fff"/>
        <path id="Tracé_1268" data-name="Tracé 1268" d="M369.6,158.748l75.012,43.085v4.347L369.6,163.095Z" transform="translate(-306.349 -23.061)" fill="#fff"/>
        <path id="Tracé_1269" data-name="Tracé 1269" d="M353.537,149.512l31.122,18v4.347l-31.122-18Z" transform="translate(-325.368 -33.999)" fill="#fff"/>
        <path id="Tracé_1270" data-name="Tracé 1270" d="M343.7,143.752l18.511,10.657v4.347L343.7,148.1Z" transform="translate(-337.013 -40.82)" fill="url(#linear-gradient-2)"/>
        <path id="Tracé_1271" data-name="Tracé 1271" d="M359.076,158.4l10.653,6.1v4.347l-10.653-6.1Z" transform="translate(-318.808 -23.474)" fill="url(#linear-gradient-2)"/>
        <path id="Tracé_1272" data-name="Tracé 1272" d="M352.875,154.735l10.3,5.831v4.346l-10.3-5.831Z" transform="translate(-326.151 -27.814)" fill="#fff"/>
        <path id="Tracé_1273" data-name="Tracé 1273" d="M371.154,171.011l71.614,41.462v4.347l-71.614-41.463Z" transform="translate(-304.506 -8.54)" fill="#fff"/>
        <path id="Tracé_1274" data-name="Tracé 1274" d="M356.429,162.561l22.828,13.216v4.347l-22.828-13.216Z" transform="translate(-321.944 -18.547)" fill="#fff"/>
        <path id="Tracé_1275" data-name="Tracé 1275" d="M343.7,155.272,355.67,162.1v4.347L343.7,159.618Z" transform="translate(-337.013 -27.178)" fill="url(#linear-gradient-2)"/>
      </g>
    </g>
  </g>
</svg>
