<svg xmlns="http://www.w3.org/2000/svg" width="854.429" height="572.279" viewBox="0 0 854.429 572.279">
  <g id="Groupe_231" data-name="Groupe 231" transform="translate(-859.756 -107.198)">
    <g id="Groupe_45" data-name="Groupe 45" transform="translate(500.563 -446.023)">
      <path id="Tracé_585" data-name="Tracé 585" d="M394.748,582.754l227.345,48.615,119.49,188.655,93.6-3.628,46.438,84.895-69.657-18.865-11.61,29.024-5.8,5.079-17.414,34.829-193.009,66.755,4.354,41.338-121.9,66.05,90.7-267.019-8.707-4.354L359.194,663.3l110.291,36.28Z" transform="translate(0)" fill="#206ac2"/>
      <path id="Tracé_586" data-name="Tracé 586" d="M483.973,699.575l97.23,149.11,55.378-217.316L409.236,582.754Z" transform="translate(-14.488)" fill="none"/>
      <path id="Tracé_587" data-name="Tracé 587" d="M409.236,582.754l227.345,48.615L581.2,854.127Z" transform="translate(-14.488)" fill="#206ac2"/>
      <path id="Tracé_588" data-name="Tracé 588" d="M651.279,964.711S878.39,1022.94,876.758,1022.4,771.365,990.288,651.279,964.711Z" transform="translate(-84.565 -110.584)" fill="none"/>
      <path id="Tracé_589" data-name="Tracé 589" d="M601.042,970.839l31.2,200.969-121.9,66.05Z" transform="translate(-43.761 -112.358)" fill="#134989"/>
      <path id="Tracé_590" data-name="Tracé 590" d="M956.18,1006.658,991.008,911.6l-93.6,3.628Z" transform="translate(-155.824 -95.209)" fill="#206ac2"/>
      <path id="Tracé_591" data-name="Tracé 591" d="M706.657,651.18,651.279,873.938,884.921,931.26Z" transform="translate(-84.565 -19.811)" fill="#134989"/>
      <path id="Tracé_592" data-name="Tracé 592" d="M469.485,732.4l-110.291-36.28,189.38,190.831,8.707,4.354s2.244-15.7,2.637-15.078S469.485,732.4,469.485,732.4Z" transform="translate(0 -32.821)" fill="#134989"/>
      <path id="Tracé_593" data-name="Tracé 593" d="M1019.689,911.6,996.47,977.634l69.657,18.866Z" transform="translate(-184.505 -95.209)" fill="#eeac57"/>
    </g>
    <g id="Groupe_46" data-name="Groupe 46" transform="matrix(0.951, -0.309, 0.309, 0.951, 640.032, -201.833)">
      <path id="Tracé_585-2" data-name="Tracé 585" d="M388.75,582.754l188.99,40.413,99.331,156.828,77.811-3.016,38.6,70.572L735.58,831.869,725.929,856l-4.825,4.222-14.477,28.953L546.18,944.664l3.619,34.364-101.335,54.907,75.4-221.971-7.238-3.619L359.194,649.707l91.684,30.159Z" transform="translate(0)" fill="#206ac2"/>
      <path id="Tracé_586-2" data-name="Tracé 586" d="M471.364,679.866,552.191,803.82l46.036-180.653-188.99-40.413Z" transform="translate(-20.487)" fill="none"/>
      <path id="Tracé_587-2" data-name="Tracé 587" d="M409.236,582.754l188.99,40.413L552.191,808.344Z" transform="translate(-20.487)" fill="#206ac2"/>
      <path id="Tracé_588-2" data-name="Tracé 588" d="M651.279,964.711s188.8,48.406,187.439,47.953S751.106,985.973,651.279,964.711Z" transform="translate(-119.575 -156.367)" fill="none"/>
      <path id="Tracé_589-2" data-name="Tracé 589" d="M585.74,970.839,611.677,1137.9,510.343,1192.81Z" transform="translate(-61.878 -158.876)" fill="#134989"/>
      <path id="Tracé_590-2" data-name="Tracé 590" d="M946.264,990.622,975.217,911.6l-77.811,3.016Z" transform="translate(-220.335 -134.626)" fill="#206ac2"/>
      <path id="Tracé_591-2" data-name="Tracé 591" d="M697.314,651.18,651.279,836.357,845.5,884.008Z" transform="translate(-119.575 -28.012)" fill="#134989"/>
      <path id="Tracé_592-2" data-name="Tracé 592" d="M450.878,726.275l-91.684-30.159L516.625,854.753l7.238,3.619s1.866-13.049,2.192-12.535S450.878,726.275,450.878,726.275Z" transform="translate(0 -46.409)" fill="#134989"/>
      <path id="Tracé_593-2" data-name="Tracé 593" d="M1015.772,911.6l-19.3,54.89,57.906,15.683Z" transform="translate(-260.89 -134.626)" fill="#eeac57"/>
    </g>
  </g>
</svg>
