<svg xmlns="http://www.w3.org/2000/svg" width="69.964" height="107.896" viewBox="0 0 69.964 107.896">
  <g id="Groupe_17" data-name="Groupe 17" transform="translate(-412.208 -1778.042)">
    <path id="Path" d="M3.748,64.508l32.337.051L40.22,8.807,18.927,0,0,8.469,3.748,64.508Z" transform="translate(427.371 1793.928)" fill="#eeac57"/>
    <path id="Path-2" data-name="Path" d="M0,23.367,56.1,0,13.519.338,0,23.367Z" transform="translate(412.208 1785.831)" fill="#db881b"/>
    <path id="Path-3" data-name="Path" d="M56.445,23.029,42.584,0,0,.338,56.445,23.029Z" transform="translate(425.727 1785.831)" fill="#db881b"/>
    <path id="Path-4" data-name="Path" d="M21.629,0,0,8.127l42.584-.338L21.629,0Z" transform="translate(425.727 1778.042)" fill="#eeac57"/>
    <path id="Path-5" data-name="Path" d="M0,6.433,18.042,43.025,15.146,0,0,6.433Z" transform="translate(412.212 1802.68)" fill="#db881b"/>
    <path id="Path-6" data-name="Path" d="M2.74,0,0,41.665,17.663,5.994,2.74,0Z" transform="translate(464.509 1802.866)" fill="#db881b"/>
    <path id="Path-7" data-name="Path" d="M0,0H32.488l-7.6,8.579H7.6L0,0Z" transform="translate(431.068 1877.359)" fill="#134989"/>
    <rect id="Rectangle" width="32.392" height="7.51" transform="translate(431.106 1858.119)" fill="#206ac1"/>
    <rect id="Rectangle-2" data-name="Rectangle" width="32.392" height="7.51" transform="translate(431.106 1865.173)" fill="#134989"/>
    <rect id="Rectangle-3" data-name="Rectangle" width="32.392" height="5.542" transform="translate(431.106 1871.901)" fill="#206ac2"/>
  </g>
</svg>
