<svg xmlns="http://www.w3.org/2000/svg" width="552.813" height="563.211" viewBox="0 0 552.813 563.211">
  <g id="Groupe_224" data-name="Groupe 224" transform="translate(-273.187 -2281.71)">
    <path id="Tracé_1295" data-name="Tracé 1295" d="M180.068,0,342.629,360.215,0,338.206Z" transform="matrix(0.839, 0.545, -0.545, 0.839, 538.647, 2288.752)" fill="#134989" opacity="0.077"/>
    <g id="Groupe_195" data-name="Groupe 195" transform="translate(269.772 2252.133)">
      <path id="Tracé_1286" data-name="Tracé 1286" d="M40.31,29.576,276.227,80.024l124,195.768,97.131-3.765,48.189,88.1-72.284-19.577-12.047,30.118-6.024,5.271-18.071,36.142L236.831,481.35l4.518,42.9-126.5,68.54L208.972,315.7l-9.035-4.518L3.415,113.154,117.864,150.8Z" transform="translate(0 0)" fill="#206ac2"/>
      <path id="Tracé_1287" data-name="Tracé 1287" d="M96.313,150.8l100.9,154.732,57.466-225.51L18.759,29.576Z" transform="translate(21.551 0)" fill="none"/>
      <path id="Tracé_1288" data-name="Tracé 1288" d="M18.759,29.576,254.676,80.024,197.21,311.182Z" transform="translate(21.551 0)" fill="#206ac2"/>
      <path id="Tracé_1289" data-name="Tracé 1289" d="M92.973,146.69s235.676,60.426,233.981,59.861S217.588,173.234,92.973,146.69Z" transform="translate(125.788 164.491)" fill="none"/>
      <path id="Tracé_1290" data-name="Tracé 1290" d="M143.879,148.569l32.377,208.547-126.5,68.54Z" transform="translate(65.093 167.13)" fill="#134989"/>
      <path id="Tracé_1291" data-name="Tracé 1291" d="M229.429,229.044l36.142-98.637-97.131,3.765Z" transform="translate(231.783 141.621)" fill="#206ac2"/>
      <path id="Tracé_1292" data-name="Tracé 1292" d="M150.439,50.557,92.973,281.714,335.425,341.2Z" transform="translate(125.788 29.468)" fill="#134989"/>
      <path id="Tracé_1293" data-name="Tracé 1293" d="M117.864,101.983,3.415,64.335,199.938,262.361l9.034,4.518s2.33-16.288,2.736-15.646S117.864,101.983,117.864,101.983Z" transform="translate(0 48.82)" fill="#134989"/>
      <path id="Tracé_1294" data-name="Tracé 1294" d="M222.909,130.407l-24.095,68.519L271.1,218.5Z" transform="translate(274.446 141.621)" fill="#eeac57"/>
    </g>
  </g>
</svg>
