<svg xmlns="http://www.w3.org/2000/svg" width="828.428" height="707.047" viewBox="0 0 828.428 707.047">
  <g id="Groupe_222" data-name="Groupe 222" transform="translate(-78.384 -1197.939)">
    <path id="Tracé_1112" data-name="Tracé 1112" d="M225.866,0,451.733,440.594l-541.762,7.252Z" transform="matrix(0.259, 0.966, -0.966, 0.259, 789.896, 1284.9)" fill="#134989" opacity="0.077"/>
    <path id="Tracé_1150" data-name="Tracé 1150" d="M185.413-2.512,352.8,368.4,0,345.733Z" transform="translate(397.424 1326.083) rotate(60)" fill="#134989" opacity="0.077"/>
    <g id="Groupe_172" data-name="Groupe 172" transform="translate(273.188 1309.424)">
      <g id="Groupe_166" data-name="Groupe 166" transform="translate(57.204)">
        <path id="Tracé_1113" data-name="Tracé 1113" d="M670.245,614.17V154.752L904.2,289.077V750.314Z" transform="translate(-670.245 -154.752)" fill="#134989"/>
        <path id="Tracé_1114" data-name="Tracé 1114" d="M933.407,407.73v23.093c0,1.608.96,2.354,2.166,1.658l-.288-.2c1.206-.7,1.563-2.58,1.563-4.187V405c0-1.607-.37-2.353-1.576-1.657l-.007.2C934.059,404.238,933.407,406.122,933.407,407.73Z" transform="translate(-691.175 -174.503)" fill="#134989"/>
        <path id="Tracé_1115" data-name="Tracé 1115" d="M879.781,673.494l-188.109-108.6a6.322,6.322,0,0,1-3.162-5.476V217.979a6.323,6.323,0,0,1,9.484-5.476L886.1,321.108a6.324,6.324,0,0,1,3.162,5.476V668.018A6.323,6.323,0,0,1,879.781,673.494Z" transform="translate(-671.698 -159.277)" fill="#97cbff"/>
        <path id="Tracé_1116" data-name="Tracé 1116" d="M828.628,271.09,768.97,236.646c-2.093-1.209-3.805-4.481-3.805-7.272h0c0-2.79,1.712-4.085,3.805-2.876l59.657,34.444c2.093,1.209,3.805,4.481,3.805,7.272h0C832.433,271,830.721,272.3,828.628,271.09Z" transform="translate(-677.794 -160.422)" fill="#134989"/>
      </g>
      <path id="Tracé_1117" data-name="Tracé 1117" d="M950.085,398.925,789.9,306.4v94.281l160.185,92.483Z" transform="translate(-622.557 -166.813)" fill="#d6ebff"/>
      <path id="Tracé_1118" data-name="Tracé 1118" d="M856.583,425.311l-53.649-30.974V332.775l53.649,30.974Z" transform="translate(-623.594 -168.911)" fill="#134989"/>
      <path id="Tracé_1119" data-name="Tracé 1119" d="M846.339,411.355c0-4.091-1.768-11-3.436-13.471h0a17.119,17.119,0,0,0-2.531-2.808c-.853-.81-1.966-1.957-3.043-3.067-.359-.371-.723-.745-1.079-1.11h0l-2.177-2.338-.976-1.254a3.532,3.532,0,0,1-.227-.291c-.021-.158-.007-.328-.014-.47l-.13-2.993a3.612,3.612,0,0,0,1.58-2.937c1.459.891,1.776-1.009,1.905-2.357.092-.957.2-3.372-.93-4.288.025-.15.05-.3.076-.422a11.552,11.552,0,0,0,.306-2.533,8.354,8.354,0,0,0-.566-2.977,2.827,2.827,0,0,0-.365-.684,3.472,3.472,0,0,0-.187-1.089,15.833,15.833,0,0,0-4.387-7.033,10.133,10.133,0,0,0-5.385-2.543c-1.27-.182-2.954-.012-2.976,2.249a2.415,2.415,0,0,0,.158.853c-.241-.118-.427.036-.549.227a4.289,4.289,0,0,0-.454,2.379,18.568,18.568,0,0,0,.42,2.958c.032.156.063.328.094.506-1.4-.842-1.1,2.059-.94,3.247.2,1.481.627,3.708,1.949,4.564a13.068,13.068,0,0,0,.44,2,11.952,11.952,0,0,0,1.2,2.658c0,.014-.01.019-.009.038l.133,3.073c0,.087.03.254.024.356-.02-.073-.23.1-.287.127l-.6.3-.005-.011-.569-.091-.005-.018-.136-.029a8.808,8.808,0,0,0-1.141-.159l-.046-.007v0c-.488-.04-.981-.054-1.465-.066a14.238,14.238,0,0,1-2.611-.225,4.9,4.9,0,0,0-2.475-.124c-1.539.528-3.092,2.891-3.024,10.976l34.437,21.058Zm-10.418-33.167c-.014.131-.027.249-.038.341C835.894,378.423,835.907,378.309,835.921,378.188Z" transform="translate(-624.307 -170.808)" fill="#fff"/>
      <path id="Tracé_1120" data-name="Tracé 1120" d="M893.134,386.873l-24.182-13.962v8.166l24.182,13.962Z" transform="translate(-628.845 -172.103)" fill="#97cbff"/>
      <path id="Tracé_1121" data-name="Tracé 1121" d="M913.725,426.5l-46-26.558v-8.166l46,26.558Z" transform="translate(-628.747 -173.603)" fill="#97cbff"/>
      <path id="Tracé_1122" data-name="Tracé 1122" d="M948.685,446.476l-46-26.558v-8.166l46,26.558Z" transform="translate(-631.527 -175.192)" fill="#97cbff"/>
      <path id="Tracé_1123" data-name="Tracé 1123" d="M948.685,466.222l-46-26.558V431.5l46,26.558Z" transform="translate(-631.527 -176.763)" fill="#97cbff"/>
      <path id="Tracé_1124" data-name="Tracé 1124" d="M916.819,408.752l-46-26.558v-8.166l46,26.558Z" transform="translate(-628.993 -172.192)" fill="#97cbff"/>
      <path id="Tracé_1125" data-name="Tracé 1125" d="M912.5,445.359l-46-26.558v-8.166l46,26.558Z" transform="translate(-628.649 -175.103)" fill="#97cbff"/>
      <path id="Tracé_1126" data-name="Tracé 1126" d="M833.6,429.81l-53.649-30.974V337.274L833.6,368.248Z" transform="translate(-621.766 -169.269)" fill="#fff" opacity="0.33"/>
      <g id="Groupe_167" data-name="Groupe 167" transform="translate(137.825 255.699)">
        <path id="Tracé_1127" data-name="Tracé 1127" d="M776.339,432.545V638.936L878.6,698.02V491.629Z" transform="translate(-759.304 -432.545)" fill="#fff"/>
        <path id="Tracé_1128" data-name="Tracé 1128" d="M860.441,537.515l-46-26.558v-8.166l46,26.558Z" transform="translate(-762.334 -438.132)" fill="#97cbff"/>
        <path id="Tracé_1129" data-name="Tracé 1129" d="M860.441,577.742l-46-26.558v-8.166l46,26.558Z" transform="translate(-762.334 -441.331)" fill="#97cbff"/>
        <path id="Tracé_1130" data-name="Tracé 1130" d="M860.441,617.969l-46-26.558v-8.166l46,26.558Z" transform="translate(-762.334 -444.531)" fill="#97cbff"/>
        <path id="Tracé_1131" data-name="Tracé 1131" d="M800.441,507.137l-9.275-5.355a5.991,5.991,0,0,1-2.5-4.781v-9.713c0-1.843,1.119-2.69,2.5-1.892l9.275,5.354a5.994,5.994,0,0,1,2.5,4.781v9.714C802.943,507.087,801.823,507.934,800.441,507.137Z" transform="translate(-760.284 -436.725)" fill="#206ac2"/>
        <path id="Tracé_1132" data-name="Tracé 1132" d="M800.441,550.216l-9.275-5.355a5.991,5.991,0,0,1-2.5-4.781v-9.713c0-1.843,1.119-2.69,2.5-1.892l9.275,5.355a5.992,5.992,0,0,1,2.5,4.78v9.714C802.943,550.167,801.823,551.014,800.441,550.216Z" transform="translate(-760.284 -440.151)" fill="#206ac2"/>
        <path id="Tracé_1133" data-name="Tracé 1133" d="M800.441,593.295l-9.275-5.355a5.989,5.989,0,0,1-2.5-4.78v-9.714c0-1.843,1.119-2.69,2.5-1.892l9.275,5.355a5.994,5.994,0,0,1,2.5,4.781V591.4C802.943,593.246,801.823,594.093,800.441,593.295Z" transform="translate(-760.284 -443.577)" fill="#206ac2"/>
        <path id="Tracé_1134" data-name="Tracé 1134" d="M824.985,671.625l-53.811-31.068c-7.338-4.237-13.341-15.708-13.341-25.492V612.2c0-9.784,6-14.323,13.342-10.086l53.811,31.068c7.338,4.237,13.342,15.708,13.341,25.492v2.866C838.327,671.323,832.323,675.861,824.985,671.625Z" transform="translate(-757.832 -445.905)" fill="#eeac57"/>
        <path id="Tracé_1135" data-name="Tracé 1135" d="M821.186,652.719l-46.7-26.962a4.164,4.164,0,0,1-1.732-3.31h0c0-1.27.78-1.859,1.732-1.309l46.7,26.961a4.164,4.164,0,0,1,1.732,3.31h0C822.918,652.68,822.139,653.269,821.186,652.719Z" transform="translate(-759.019 -447.528)" fill="#fff"/>
      </g>
      <g id="Groupe_168" data-name="Groupe 168" transform="translate(66.087 325.502)">
        <path id="Tracé_1136" data-name="Tracé 1136" d="M743.338,587.891l-61.1-33.464a4.415,4.415,0,0,1-2.345-3.9l.272-39.645a2.658,2.658,0,0,1,3.945-2.172l60.767,33.283a4.321,4.321,0,0,1,2.295,3.817l-.275,40.121A2.4,2.4,0,0,1,743.338,587.891Z" transform="translate(-679.895 -508.38)" fill="#fff"/>
        <path id="Tracé_1137" data-name="Tracé 1137" d="M689.474,561.435l8.559-8.628a4.18,4.18,0,0,1,6.7.978l7.737,16.615,9.275-12.111a4.172,4.172,0,0,1,7.148.838l11.414,30.152Z" transform="translate(-680.657 -511.813)" fill="#206ac2"/>
        <path id="Tracé_1138" data-name="Tracé 1138" d="M705.247,533.583c-.019,2.8-1.841,4.075-4.068,2.854a8.921,8.921,0,0,1-4-7.273c.019-2.8,1.84-4.074,4.068-2.854A8.922,8.922,0,0,1,705.247,533.583Z" transform="translate(-681.27 -509.769)" fill="#eeac57"/>
      </g>
      <g id="Groupe_169" data-name="Groupe 169" transform="translate(168.559 74.627)">
        <path id="Tracé_1139" data-name="Tracé 1139" d="M854.2,317.538,793.542,282.4a4.574,4.574,0,0,1-2.32-4l.392-40.1a2.6,2.6,0,0,1,3.931-2.115l60.334,34.946a4.477,4.477,0,0,1,2.272,3.909l-.4,40.586A2.347,2.347,0,0,1,854.2,317.538Z" transform="translate(-791.221 -235.828)" fill="#fff"/>
      </g>
      <g id="Groupe_171" data-name="Groupe 171" transform="translate(0 31.093)">
        <path id="Tracé_1140" data-name="Tracé 1140" d="M608.1,417.63,745.923,497.2V268.1L608.1,188.531Z" transform="translate(-608.098 -188.531)" fill="#d6ebff"/>
        <g id="Groupe_170" data-name="Groupe 170" transform="translate(14.422 115.529)">
          <path id="Tracé_1141" data-name="Tracé 1141" d="M623.78,350.482c.659,31.945,23.746,70.249,51.566,85.555s49.839,1.816,49.18-30.129-23.747-70.249-51.567-85.555S623.121,318.538,623.78,350.482Zm84.152,46.3c.442,21.421-14.323,30.467-32.978,20.2s-34.137-35.949-34.579-57.371,14.323-30.467,32.979-20.2S707.49,375.357,707.932,396.779Z" transform="translate(-623.765 -314.043)" fill="#134989"/>
          <path id="Tracé_1142" data-name="Tracé 1142" d="M673.694,320.354c-17.025-9.367-31.866-7.934-40.678,1.9L647,340.476c5.931-6.406,15.794-7.283,27.091-1.068,15.442,8.5,28.7,27.558,33.063,46.021l16.023,4.288C716.848,361.956,696.928,333.136,673.694,320.354Z" transform="translate(-624.501 -314.043)" fill="#eeac57"/>
          <path id="Tracé_1143" data-name="Tracé 1143" d="M637.22,396.3l12.388-5.381c-5.548-9.851-9.028-20.77-9.234-30.763-.187-9.047,2.346-15.875,6.731-19.985l-12.99-19.225c-6.723,6.1-10.618,16.386-10.335,30.081C624.083,365.731,629.143,381.773,637.22,396.3Z" transform="translate(-623.765 -314.592)" fill="#fff"/>
        </g>
        <path id="Tracé_1144" data-name="Tracé 1144" d="M652.323,292.776,636,283.351c-2.658-1.535-4.813-5.653-4.813-9.2h0c0-3.545,2.155-5.174,4.813-3.639l16.324,9.425c2.658,1.535,4.813,5.653,4.813,9.2h0C657.136,292.682,654.981,294.31,652.323,292.776Z" transform="translate(-609.934 -195.006)" fill="#fff"/>
        <path id="Tracé_1145" data-name="Tracé 1145" d="M689.031,310.8l-16.324-9.425c-2.658-1.534-4.813-5.653-4.813-9.2h0c0-3.544,2.155-5.173,4.813-3.639l16.324,9.425c2.658,1.535,4.814,5.653,4.814,9.2h0C693.845,310.708,691.689,312.337,689.031,310.8Z" transform="translate(-612.853 -196.44)" fill="#fff"/>
        <path id="Tracé_1146" data-name="Tracé 1146" d="M725.74,331.07l-16.325-9.425c-2.659-1.535-4.814-5.653-4.814-9.2h0c0-3.545,2.155-5.174,4.814-3.639l16.325,9.425c2.658,1.534,4.813,5.653,4.813,9.2h0C730.553,330.975,728.4,332.6,725.74,331.07Z" transform="translate(-615.773 -198.052)" fill="#fff"/>
        <path id="Tracé_1147" data-name="Tracé 1147" d="M728.137,294.6l-91.074-52.581c-2.292-1.324-4.149-4.873-4.149-7.929h0c0-3.056,1.857-4.461,4.149-3.138l91.074,52.582c2.292,1.323,4.149,4.873,4.149,7.929h0C732.287,294.518,730.429,295.923,728.137,294.6Z" transform="translate(-610.071 -191.866)" fill="#134989"/>
      </g>
      <path id="Tracé_1148" data-name="Tracé 1148" d="M847.7,285.933l-46-26.558v-8.166l46,26.558Z" transform="translate(-623.496 -162.424)" fill="#97cbff"/>
      <path id="Tracé_1149" data-name="Tracé 1149" d="M847.7,306.569l-46-26.558v-8.166l46,26.558Z" transform="translate(-623.496 -164.065)" fill="#97cbff"/>
    </g>
  </g>
</svg>
